:FULLY-SPECIFIED
:FORCE-ALL-JOINTS-BE-3DOF
:DEGREES
985
root 1.11934 15.1558 32.4857 5.31976 -4.69524 364.097
lfemur 8.73557 1.76685 5.17983
ltibia 1.9788e-14 0 0
lfoot -30.1106 -11.6944 0
ltoes -33.8887 0 0
rfemur -32.8757 -15.6403 -6.22555
rtibia 50.6935 0 0
rfoot -22.7229 5.03769 0
rtoes -42.1907 0 0
lowerback -1.4961 -0.368611 0.673946
upperback -0.7336 -0.496577 -5.86902
thorax 0.0258093 -0.264896 -6.47609
lowerneck -6.76067 1.17348 5.82122
upperneck 1.15634 0.975654 3.36111
head 1.5145 0.594335 0.102677
lclavicle -1.00781e-14 2.46655e-15 0
lhumerus -58.2706 -45.0646 114.833
lradius 55.0247 0 0
lwrist 24.9698 0 0
lhand 37.2531 24.4131 0
lfingers 7.12502 0 0
lthumb 60.0817 38.1071 0
rclavicle -1.00781e-14 2.46655e-15 0
rhumerus 3.78591 -24.8564 -0.107197
rradius 27.993 0 0
rwrist -11.2247 0 0
rhand -31.4773 -44.5886 0
rfingers 7.12502 0 0
rthumb -4.74407 -794.515 0
986
root 1.12175 15.1566 32.4816 5.29273 -4.66502 364.092
lfemur 8.73029 1.72946 5.17837
ltibia 1.94075e-14 0 0
lfoot -30.1135 -11.6732 0
ltoes -33.9086 0 0
rfemur -32.8248 -15.6114 -6.23571
rtibia 50.6568 0 0
rfoot -22.7104 4.98123 0
rtoes -42.2273 0 0
lowerback -1.49148 -0.363669 0.671607
upperback -0.72219 -0.48941 -5.86006
thorax 0.0359918 -0.260824 -6.46508
lowerneck -6.77641 1.1707 5.82326
upperneck 1.18957 0.969084 3.35947
head 1.52792 0.592296 0.101794
lclavicle -1.12375e-14 1.13471e-15 0
lhumerus -58.2672 -45.1046 114.852
lradius 55.0328 0 0
lwrist 24.9692 0 0
lhand 37.2417 24.3947 0
lfingers 7.12502 0 0
lthumb 60.0719 38.0992 0
rclavicle -1.12375e-14 1.13471e-15 0
rhumerus 3.76408 -24.8132 -0.145444
rradius 27.9776 0 0
rwrist -11.1763 0 0
rhand -31.4599 -44.5157 0
rfingers 7.12502 0 0
rthumb -4.72727 -794.443 0
987
root 1.12327 15.1571 32.479 5.27565 -4.64593 364.089
lfemur 8.72696 1.70583 5.17744
ltibia 1.91671e-14 0 0
lfoot -30.1153 -11.6599 0
ltoes -33.9212 0 0
rfemur -32.7926 -15.5932 -6.24212
rtibia 50.6337 0 0
rfoot -22.7025 4.94556 0
rtoes -42.2504 0 0
lowerback -1.48856 -0.360547 0.67013
upperback -0.714982 -0.484882 -5.8544
thorax 0.0424248 -0.258252 -6.45812
lowerneck -6.78636 1.16895 5.82454
upperneck 1.21056 0.964934 3.35842
head 1.53639 0.591007 0.101237
lclavicle -1.197e-14 2.93294e-16 0
lhumerus -58.2651 -45.1299 114.865
lradius 55.038 0 0
lwrist 24.9688 0 0
lhand 37.2344 24.3831 0
lfingers 7.12502 0 0
lthumb 60.0658 38.0942 0
rclavicle -1.197e-14 2.93294e-16 0
rhumerus 3.75029 -24.7859 -0.169607
rradius 27.9678 0 0
rwrist -11.1458 0 0
rhand -31.4489 -44.4697 0
rfingers 7.12502 0 0
rthumb -4.71665 -794.397 0
988
root 1.1238 15.1573 32.4781 5.2697 -4.63928 364.088
lfemur 8.7258 1.6976 5.17712
ltibia 1.90833e-14 0 0
lfoot -30.1159 -11.6552 0
ltoes -33.9256 0 0
rfemur -32.7814 -15.5868 -6.24436
rtibia 50.6256 0 0
rfoot -22.6997 4.93313 0
rtoes -42.2585 0 0
lowerback -1.48754 -0.359459 0.669615
upperback -0.712469 -0.483304 -5.85243
thorax 0.0446671 -0.257355 -6.4557
lowerneck -6.78983 1.16834 5.82499
upperneck 1.21788 0.963487 3.35806
head 1.53935 0.590558 0.101043
lclavicle -1.22253e-14 0 0
lhumerus -58.2643 -45.1387 114.869
lradius 55.0398 0 0
lwrist 24.9687 0 0
lhand 37.2319 24.379 0
lfingers 7.12502 0 0
lthumb 60.0636 38.0924 0
rclavicle -1.22253e-14 0 0
rhumerus 3.74548 -24.7764 -0.17803
rradius 27.9644 0 0
rwrist -11.1351 0 0
rhand -31.4451 -44.4536 0
rfingers 7.12502 0 0
rthumb -4.71295 -794.381 0
989
root 1.12393 15.1573 32.4777 5.26729 -4.63286 364.085
lfemur 8.72364 1.69098 5.17989
ltibia 1.86119e-14 0 0
lfoot -30.1158 -11.6513 0
ltoes -33.9279 0 0
rfemur -32.7748 -15.5881 -6.24302
rtibia 50.6222 0 0
rfoot -22.6992 4.92875 0
rtoes -42.2643 0 0
lowerback -1.48635 -0.358502 0.668086
upperback -0.711585 -0.481982 -5.85235
thorax 0.0450766 -0.256659 -6.45471
lowerneck -6.79245 1.16728 5.82621
upperneck 1.22029 0.96161 3.35922
head 1.54058 0.589769 0.101154
lclavicle -1.21598e-14 -1.25697e-16 0
lhumerus -58.2673 -45.1467 114.873
lradius 55.0432 0 0
lwrist 24.9695 0 0
lhand 37.231 24.3804 0
lfingers 7.12502 0 0
lthumb 60.0628 38.0946 0
rclavicle -1.21598e-14 -1.25697e-16 0
rhumerus 3.74063 -24.7711 -0.176651
rradius 27.963 0 0
rwrist -11.1326 0 0
rhand -31.4415 -44.4464 0
rfingers 7.12502 0 0
rthumb -4.70951 -794.374 0
990
root 1.12429 15.1575 32.4766 5.26036 -4.61443 364.078
lfemur 8.71744 1.67201 5.18783
ltibia 1.72597e-14 0 0
lfoot -30.1156 -11.64 0
ltoes -33.9345 0 0
rfemur -32.7558 -15.592 -6.23916
rtibia 50.6126 0 0
rfoot -22.6977 4.91619 0
rtoes -42.2808 0 0
lowerback -1.48296 -0.355756 0.6637
upperback -0.709049 -0.478188 -5.85214
thorax 0.0462514 -0.254664 -6.45189
lowerneck -6.79999 1.16424 5.8297
upperneck 1.22721 0.956227 3.36253
head 1.54412 0.587504 0.101473
lclavicle -1.1972e-14 -4.86304e-16 0
lhumerus -58.2758 -45.1696 114.885
lradius 55.053 0 0
lwrist 24.9719 0 0
lhand 37.2284 24.3845 0
lfingers 7.12502 0 0
lthumb 60.0606 38.101 0
rclavicle -1.1972e-14 -4.86304e-16 0
rhumerus 3.72673 -24.7558 -0.172696
rradius 27.959 0 0
rwrist -11.1254 0 0
rhand -31.4313 -44.4257 0
rfingers 7.12502 0 0
rthumb -4.69963 -794.353 0
991
root 1.12486 15.1577 32.4749 5.2494 -4.58527 364.066
lfemur 8.70763 1.64197 5.2004
ltibia 1.51192e-14 0 0
lfoot -30.1152 -11.6221 0
ltoes -33.945 0 0
rfemur -32.7258 -15.5981 -6.23306
rtibia 50.5973 0 0
rfoot -22.6954 4.8963 0
rtoes -42.3069 0 0
lowerback -1.47757 -0.351411 0.656757
upperback -0.705036 -0.472183 -5.8518
thorax 0.048111 -0.251505 -6.44741
lowerneck -6.8119 1.15942 5.83524
upperneck 1.23815 0.947705 3.36779
head 1.54973 0.583919 0.101977
lclavicle -1.16747e-14 -1.05709e-15 0
lhumerus -58.2892 -45.2059 114.903
lradius 55.0686 0 0
lwrist 24.9757 0 0
lhand 37.2244 24.3909 0
lfingers 7.12502 0 0
lthumb 60.0572 38.1111 0
rclavicle -1.16747e-14 -1.05709e-15 0
rhumerus 3.70472 -24.7317 -0.166435
rradius 27.9527 0 0
rwrist -11.114 0 0
rhand -31.4151 -44.393 0
rfingers 7.12502 0 0
rthumb -4.684 -794.321 0
